<svg width="40.000000" height="40.000000" viewBox="0 0 40 40" fill="none" xmlns="http://www.w3.org/2000/svg" xmlns:xlink="http://www.w3.org/1999/xlink">
	<desc>
			Created with Pixso.
	</desc>
	<defs>
		<clipPath id="clip538_769">
			<rect id="Icon/Social/Twitter" width="40.000000" height="40.000000" fill="white" fill-opacity="0"/>
		</clipPath>
	</defs>
	<rect id="Icon/Social/Twitter" width="40.000000" height="40.000000" fill="#FFFFFF" fill-opacity="0"/>
	<g clip-path="url(#clip538_769)">
		<path id="Shape Copy" d="M34 12.8948C33.0801 13.4922 32.0918 13.7365 30.875 13.8422C32.1133 13.2839 32.9263 12.3934 32.9585 11C32.3184 11.853 31.2207 12.2312 29.8335 12.8948C29.1167 11.5518 27.7837 11 26.7085 11C23.4761 11 21.1797 13.0344 21.5 15.7368C21.1797 15.9001 21.2246 16.2469 21.5 16.6842C17.0498 16.39 13.27 14.5809 11.0835 11.9474C10.2988 12.5028 10.0459 13.2833 10.0415 13.8422C10.0459 15.6927 10.9517 17.0836 12.125 17.6316C11.4868 17.8749 10.6963 17.6705 10.0415 17.6316C10.0044 19.589 11.7725 21.4255 14.2085 21.421C13.688 21.9468 13.2349 22.0026 13.1665 22.3684C12.4365 22.0026 12.1152 21.974 12.125 22.3684C12.4551 23.7261 14.3491 25.04 16.2915 25.2106C14.8384 26.2955 12.6265 27.0219 10.0415 27.1052C9.80957 27.0219 9.40137 27.0005 9 27.1052C11.27 28.2477 13.9658 29 17.3335 29C26.2964 29 31.4556 22.0757 31.9165 15.7368C32.4429 14.8423 33.3125 14.042 34 12.8948Z" fill="#FFFFFF" fill-opacity="1.000000" fill-rule="nonzero"/>
	</g>
</svg>
